<?xml version="1.0" standalone="no"?>
<!DOCTYPE svg PUBLIC "-//W3C//DTD SVG 20010904//EN"
 "http://www.w3.org/TR/2001/REC-SVG-20010904/DTD/svg10.dtd">
<svg version="1.0" xmlns="http://www.w3.org/2000/svg"
 width="654.000000pt" height="654.000000pt" viewBox="0 0 654.000000 654.000000"
 preserveAspectRatio="xMidYMid meet">

<g transform="translate(0.000000,654.000000) scale(0.100000,-0.100000)"
fill="#d90038" stroke="none">
<path d="M3231 6490 c-13 -6 -80 -55 -150 -109 -181 -142 -339 -253 -466 -329
-441 -263 -865 -417 -1395 -507 -19 -3 -71 -12 -115 -20 -108 -19 -289 -35
-406 -35 -118 0 -178 -25 -222 -92 l-27 -42 0 -656 c0 -764 6 -865 76 -1285
66 -397 175 -784 310 -1104 257 -605 555 -1030 1024 -1460 323 -295 809 -593
1279 -783 l125 -50 55 17 c67 21 269 109 403 176 259 129 605 350 803 514 265
218 432 389 626 640 442 570 732 1294 863 2155 60 396 65 486 66 1180 1 615 0
640 -18 677 -45 88 -97 109 -282 117 -117 5 -312 26 -390 41 -14 3 -43 8 -65
11 -106 15 -353 69 -465 101 -416 118 -730 265 -1105 516 -141 94 -196 135
-370 271 -74 58 -114 72 -154 56z m135 -517 c489 -352 1024 -601 1559 -726
166 -39 399 -77 595 -97 132 -13 158 -21 183 -56 17 -23 18 -53 17 -421 0
-218 -2 -399 -5 -402 -2 -4 -5 -52 -6 -107 -1 -54 -5 -133 -10 -174 -4 -41
-10 -104 -13 -140 -17 -191 -81 -552 -137 -774 -167 -656 -435 -1202 -795
-1612 -125 -143 -360 -373 -479 -468 -139 -111 -382 -273 -550 -367 -206 -115
-415 -213 -455 -213 -39 0 -328 140 -535 259 -889 510 -1454 1258 -1729 2290
-47 176 -116 517 -136 665 -26 202 -30 232 -41 360 -12 133 -25 1046 -15 1083
9 37 64 67 122 67 63 0 363 44 521 76 627 126 1169 365 1687 742 54 40 109 72
121 72 12 0 58 -26 101 -57z"/>
<path d="M3220 5650 c-14 -11 -83 -58 -155 -104 -442 -283 -1001 -511 -1500
-611 -209 -42 -266 -52 -360 -61 -115 -11 -105 21 -105 -332 0 -398 10 -562
56 -882 16 -119 82 -444 114 -565 175 -669 426 -1138 840 -1570 287 -300 589
-517 1010 -724 99 -50 149 -69 164 -65 37 11 248 116 346 172 469 268 843 614
1128 1040 121 181 191 311 286 529 196 451 331 1032 375 1618 17 222 16 744
-1 760 -7 7 -40 16 -73 19 -129 13 -435 70 -593 112 -231 61 -584 189 -787
285 -189 89 -450 240 -624 361 -61 43 -85 46 -121 18z m1244 -1331 c18 -14 26
-30 26 -52 0 -41 -1 -42 -90 -112 -41 -33 -77 -62 -80 -65 -3 -3 -150 -122
-328 -263 -177 -142 -395 -317 -485 -390 -89 -73 -174 -140 -189 -149 -52 -34
-119 -18 -188 47 -34 31 -129 108 -735 594 -363 291 -364 292 -371 314 -8 26
13 73 39 85 15 7 396 11 1198 11 1175 1 1176 1 1203 -20z m-2438 -445 c60 -53
168 -144 239 -202 230 -187 374 -313 380 -334 4 -10 1 -28 -7 -38 -7 -10 -98
-91 -203 -180 -295 -251 -354 -302 -444 -384 -87 -78 -108 -88 -136 -60 -14
14 -15 79 -13 643 2 344 7 632 11 639 5 6 21 12 36 12 21 0 55 -24 137 -96z
m2641 66 c9 -19 11 -167 8 -644 -4 -641 -3 -635 -42 -636 -7 0 -72 53 -146
118 -73 64 -237 206 -365 314 -225 192 -254 223 -239 261 3 8 105 98 226 201
121 103 280 238 353 302 113 98 137 114 163 112 20 -2 34 -11 42 -28z m-1687
-853 c106 -103 149 -122 275 -122 126 0 171 20 272 121 52 52 78 71 91 67 10
-2 88 -64 174 -136 85 -73 262 -220 393 -327 305 -249 315 -258 315 -301 -1
-38 -14 -60 -47 -77 -16 -9 -324 -12 -1201 -12 l-1180 0 -26 31 c-39 46 -34
77 22 131 26 25 162 144 302 264 311 266 367 314 439 381 31 29 65 53 76 53
12 0 51 -30 95 -73z"/>
</g>
</svg>
